<svg fill="none" height="391" width="259" xmlns="http://www.w3.org/2000/svg"><path d="M237.649 87.777H21.358a21.465 21.465 0 0 0-15.085 6.246A21.28 21.28 0 0 0 0 109.043V280.52c0 11.716 7.717 26.963 17.147 33.932l95.203 70.324c9.437 6.968 24.85 6.968 34.307 0l95.203-70.324c9.403-6.969 17.14-22.242 17.14-33.932V109.043a21.278 21.278 0 0 0-6.271-15.017c-4-3.985-9.421-6.231-15.08-6.249z" fill="#fff"/><path d="M182.911 317.354l-53.414 30.02-53.408-30.02z" fill="#27aae1"/><g fill="#231f20"><path d="M237.649 102.944a6.147 6.147 0 0 1 4.329 1.788 6.088 6.088 0 0 1 1.796 4.311V280.52c0 6.881-5.453 17.655-11.001 21.747l-95.196 70.331c-1.874 1.385-4.97 2.241-8.06 2.241-3.089 0-6.199-.856-8.059-2.241l-95.264-70.331c-5.555-4.092-10.995-14.866-10.995-21.747V109.043a6.092 6.092 0 0 1 1.799-4.313 6.144 6.144 0 0 1 4.333-1.786zm0-4.012H21.358c-2.7.001-5.289 1.07-7.198 2.971s-2.982 4.478-2.984 7.167v171.45c0 8.199 6.045 20.109 12.627 24.997l95.203 70.311c2.579 1.9 6.501 3.036 10.491 3.036 3.989 0 7.925-1.136 10.491-3.036l95.203-70.311c6.595-4.888 12.64-16.798 12.64-24.997V109.043a10.127 10.127 0 0 0-2.986-7.165 10.218 10.218 0 0 0-7.196-2.973z"/><path d="M48.861 141.102c.21-1.502.417-3.007.618-4.514.282-2.046-.672-3.029-2.84-2.929l-1.17.054c-2.129.093-3.358 1.237-3.64 3.41-.407 3.009-.82 6.019-1.236 9.028-.134 1.01 0 1.658.35 1.946.583.409 1.209.755 1.867 1.03 2.239.838 4.477 1.625 6.716 2.361 1.07.357 2.118.779 3.137 1.263a3.183 3.183 0 0 1 1.343 1.298c.289.548.322 1.678.087 3.404l-1.397 10.398c-.725 5.464-4.305 9.149-10.632 11.463a259.84 259.84 0 0 0-4.802 1.798c-6.226 2.461-8.805.321-7.851-6.807.127-.963.262-1.926.39-2.889 2.543-.847 5.1-1.661 7.67-2.441-.142.983-.276 2.006-.41 2.956-.29 2.126.712 2.782 3.035 2.006l1.344-.455a4.707 4.707 0 0 0 2.372-1.465 4.674 4.674 0 0 0 1.12-2.547c.403-2.916.804-5.832 1.202-8.747.128-.95 0-1.545-.369-1.792a12.09 12.09 0 0 0-1.9-.843c-2.257-.669-4.487-1.451-6.717-2.254a13.033 13.033 0 0 1-3.15-1.384 3.046 3.046 0 0 1-1.189-1.979 10.848 10.848 0 0 1 0-3.565l1.592-11.79c.895-6.633 4.305-9.924 10.229-9.87h4.64c5.925.04 8.513 2.826 7.765 8.359l-.672 4.755c-2.49.232-4.99.479-7.502.742zm26.718-8.587a97373.888 97373.888 0 0 1-4.601 38.192 272.452 272.452 0 0 0-8.06 2.006l5.132-39.95c-2.391.08-4.79.167-7.18.261.255-1.926.517-3.846.772-5.771h21.66c-.188 1.685-.376 3.377-.557 5.062-2.378.062-4.767.129-7.167.2zm12.002-5.262h14.547c5.664 0 8.389 2.146 8.174 6.439-.161 3.09-.32 6.177-.477 9.262-.168 3.284-1.827 5.411-4.997 6.487a509.773 509.773 0 0 0 4.701 15.328 254.32 254.32 0 0 0-7.764.708 488.905 488.905 0 0 1-4.117-15.059c-1.585.124-3.168.26-4.748.407-.48 5.324-.954 10.647-1.424 15.97-2.713.401-5.425.847-8.134 1.337 1.42-13.624 2.833-27.251 4.238-40.879zm5.735 19.058c1.702-.124 3.4-.245 5.098-.361 2.33-.147 3.56-1.136 3.687-2.989l.584-8.279c.13-1.854-.926-2.764-3.17-2.728l-4.93.087zm29.995 17.775c-2.731.058-5.467.163-8.207.315l1.108-30.762c.161-4.253 3.201-6.375 9.121-6.366h5.568c5.923 0 8.955 2.115 9.093 6.346l.947 30.702c-2.731-.125-5.469-.21-8.214-.255-.04-4.493-.082-8.985-.127-13.475h-9.081c-.067 4.499-.136 8.997-.208 13.495zm9.248-17.975l-.12-12.245c0-1.437-1.122-2.16-3.312-2.16h-2.014c-2.194 0-3.303.723-3.325 2.167l-.208 12.258a548.59 548.59 0 0 1 8.979-.02zm26.019-14.157l2.687 34.105a252.194 252.194 0 0 0-8.181-.909l-2.014-33.303-7.214-.107c-.067-1.503-.13-3.007-.188-4.514h21.66c.152 1.609.302 3.221.45 4.835zm35.14-4.701l4.997 37.917c.786 5.965-2.015 7.924-8.496 6.279a251.294 251.294 0 0 0-6.797-1.578c-6.461-1.418-9.974-4.514-10.491-9.683a47849.65 47849.65 0 0 0-3.358-32.935h7.428c1.312 11.462 2.619 22.924 3.922 34.386.209 1.846 1.478 2.976 3.809 3.444l3.237.669c2.162.468 3.116-.254 2.874-2.207l-4.553-36.292zm23.218 14.631a372.572 372.572 0 0 0-.672-4.774c-.299-2.18-1.538-3.322-3.714-3.424l-1.168-.054c-2.129-.093-3.049.89-2.767 2.936l1.168 8.546c.044.755.362 1.468.894 2.007.47.394 1.215.923 2.236 1.611a205.653 205.653 0 0 1 7.697 4.936 41.693 41.693 0 0 1 3.64 2.761 8.912 8.912 0 0 1 1.787 2.181 12.815 12.815 0 0 1 1.108 4.266c.551 4.093 1.104 8.185 1.659 12.278.873 6.54-1.773 8.373-8.06 5.892a246.887 246.887 0 0 0-4.802-1.793c-6.273-2.293-9.859-6.226-10.652-12.177-.114-.816-.222-1.632-.336-2.448 2.606.642 5.201 1.311 7.784 2.006l.383 2.796c.269 2.006 1.572 3.343 3.896 4.126l1.377.455c2.048.668 2.921 0 2.632-2.14l-1.269-9.249a3.71 3.71 0 0 0-.913-2.2 25.181 25.181 0 0 0-2.257-1.839 213.574 213.574 0 0 0-7.764-5.176 40.537 40.537 0 0 1-3.728-2.481 6.562 6.562 0 0 1-1.813-2.187 9.818 9.818 0 0 1-.9-3.163l-1.343-9.991c-.744-5.528 1.844-8.315 7.764-8.359h4.641c5.923-.045 9.333 3.245 10.229 9.87.25 1.873.503 3.745.758 5.618a2350.3 2350.3 0 0 0-7.495-.83zM52.911 293.099h-8.06c1.77-15.907 3.538-31.818 5.306-47.734.746-6.648 3.93-8.64 9.672-6.414 1.807.669 3.613 1.338 5.433 1.946 5.803 2.007 8.537 5.604 8.1 11.235l-3.203 40.967h-8.06a4694.05 4694.05 0 0 0 1.706-18.919 443.73 443.73 0 0 1-8.886-1.09zm11.458-25.211c.506-5.738 1.014-11.476 1.525-17.214.174-2.006-.813-3.343-2.955-4.012l-2.015-.615c-2.136-.669-3.305 0-3.52 2.16l-1.833 18.209c2.933.535 5.865 1.026 8.798 1.472zm54.704-16.766c-2.968 13.863-6.112 27.793-9.403 41.977h-8.731a1264.802 1264.802 0 0 1-3.821-25.566 4468.642 4468.642 0 0 1-5.978 25.566H82.41c-2.015-15.515-3.781-31.645-5.306-48.577 2.44.664 4.885 1.28 7.334 1.846a1644.69 1644.69 0 0 0 3.358 35.302 4334.782 4334.782 0 0 0 7.2-33.169c1.952.334 3.91.64 5.87.916a1549.861 1549.861 0 0 0 4.319 32.902c2.207-10.7 4.33-21.264 6.367-31.691 2.516.214 5.024.379 7.522.494zm10.854 41.977h-8.06c.094-11.56.193-23.123.296-34.687.047-4.795 3.089-7.022 9.141-7.109 1.898-.027 3.794-.085 5.688-.174 6.045-.308 9.128 1.772 9.262 6.687.3 11.77.607 23.538.92 35.303h-8.059c-.072-5.131-.148-10.258-.229-15.381-3.009.063-6.018.096-9.026.1zm8.906-20.497c-.068-4.659-.137-9.324-.209-13.996 0-1.639-1.155-2.401-3.358-2.328l-2.062.054c-2.23.053-3.358.869-3.358 2.501 0 4.637.011 9.271.034 13.903 2.964-.013 5.948-.058 8.953-.134zm13.929-22.844a190.969 190.969 0 0 0 14.695-2.461c5.689-1.217 8.698.722 9.087 6.219.269 3.928.54 7.854.813 11.777.289 4.18-1.054 7.002-4.07 8.359a4569.295 4569.295 0 0 1 6.837 19.447h-7.63c-2.135-6.242-4.22-12.336-6.252-18.283-1.572.113-3.15.227-4.702.327.278 5.988.558 11.973.84 17.956h-8.06l-1.558-43.341zm8.523 20.31c1.693-.141 3.392-.295 5.084-.462 2.317-.22 3.405-1.464 3.278-3.684l-.585-9.938c-.127-2.227-1.343-3.123-3.573-2.735-1.647.281-3.299.542-4.956.782l.752 16.037zm24.702 23.031l-3.861-49.44a189.681 189.681 0 0 0 12.687-4.152c6.756-2.562 10.47-.408 11.31 7.061a58646.67 58646.67 0 0 1 4.245 38.192c.631 5.604-2.279 8.384-8.732 8.339zm7.489-6.266l5.964-.227c2.096-.081 3.063-.943 2.902-2.568a46654.574 46654.574 0 0 0-3.533-35.042c-.269-2.675-1.491-3.598-3.674-2.902a245.39 245.39 0 0 1-5.131 1.558c1.155 13.062 2.312 26.123 3.472 39.181z"/></g><path d="M31.869 209.721h44.22" stroke="#27aae1" stroke-linecap="round" stroke-miterlimit="10" stroke-width="7.2"/><path d="M259 102.944c0-15.589-19.477-33.999-38.168-35.584a45.428 45.428 0 0 0-14.817-26.092 45.777 45.777 0 0 0-27.906-11.243 11.164 11.164 0 0 0-1.735-5.836c-1.108-1.748-2.68-3.158-4.542-4.072a11.3 11.3 0 0 0-11.716 1.074 56.203 56.203 0 0 0-21.68-16.569 56.452 56.452 0 0 0-52.845 4.311 56.09 56.09 0 0 0-18.683 19.861 32.45 32.45 0 0 0-14.65-1.413c-4.928.657-9.637 2.438-13.76 5.202s-7.552 6.44-10.017 10.739-3.9 9.106-4.195 14.047a48.615 48.615 0 0 0-17.82 17.82A48.348 48.348 0 0 0 0 99.5V280.52c0 11.716 7.717 26.963 17.147 33.931l95.203 70.325c9.437 6.968 24.85 6.968 34.307 0l95.203-70.325c9.403-6.968 17.14-22.242 17.14-33.931zm-6.716 177.576c0 9.536-6.75 22.884-14.44 28.568l-95.183 70.331c-3.358 2.481-8.16 3.906-13.157 3.906s-9.793-1.425-13.151-3.906l-95.21-70.331c-7.71-5.684-14.426-19.032-14.426-28.568V109.043a14.58 14.58 0 0 1 4.293-10.308 14.707 14.707 0 0 1 10.348-4.284h216.264a14.702 14.702 0 0 1 10.359 4.277 14.57 14.57 0 0 1 4.296 10.315z" fill="#27aae1"/><path d="M180.749 209.721h44.22" stroke="#27aae1" stroke-linecap="round" stroke-miterlimit="10" stroke-width="7.2"/><path d="M85.21 215.064c3.506-2.608 11.417-6.687 11.417-11.368 0-1.144-.49-2.956-3.459-2.956a7.768 7.768 0 0 0-3.102.669c.124.294.186.61.18.929 0 .714-.284 1.399-.79 1.903a2.71 2.71 0 0 1-3.824 0 2.683 2.683 0 0 1-.792-1.903c0-3.002 4.077-5.35 8.953-5.35 4.299 0 7.885 1.813 7.885 6.226 0 4.721-4.117 8.025-9.262 11.034h9.974v4.233H86.009zm20.437-7.088c0-5.919 2.922-10.994 10.075-10.994s10.074 5.075 10.074 10.994c0 5.918-2.921 10.987-10.074 10.987s-10.075-5.049-10.075-10.987zm15.025 0c0-4.374-1.464-7.196-4.917-7.196-3.452 0-4.936 2.849-4.936 7.196 0 4.346 1.464 7.188 4.923 7.188s4.93-2.795 4.93-7.188zm8.583 7.088c3.499-2.608 11.418-6.687 11.418-11.368 0-1.144-.484-2.956-3.452-2.956a7.73 7.73 0 0 0-3.103.669c.119.295.178.611.174.929 0 .714-.285 1.399-.792 1.903a2.708 2.708 0 0 1-3.823 0 2.683 2.683 0 0 1-.791-1.903c0-3.002 4.076-5.35 8.952-5.35 4.299 0 7.892 1.813 7.892 6.226 0 4.721-4.124 8.025-9.268 11.034h9.973v4.233h-16.387zm20.431-7.088c0-5.919 2.928-10.994 10.074-10.994 7.147 0 10.075 5.075 10.075 10.994 0 5.918-2.922 10.987-10.075 10.987-7.152 0-10.074-5.049-10.074-10.987zm15.024 0c0-4.374-1.457-7.196-4.916-7.196s-4.923 2.822-4.923 7.196c0 4.373 1.464 7.188 4.923 7.188s4.916-2.795 4.916-7.188z" fill="#231f20"/></svg>