<svg xmlns="http://www.w3.org/2000/svg" width="96" height="52" fill="none"><path fill-rule="evenodd" clip-rule="evenodd" d="M23.456 30.668c0 2.686-6.703 3.693-7.08 3.748.148.022 1.02.16 2.111.409 3.248.629 5.388 1.722 5.388 3.001v10.179l-.039.08c-.65 1.823-5.721 3.248-11.882 3.248S.715 49.908.072 48.085H0V37.9c0-.633.529-1.228 1.46-1.747-.71-.7-.456-2.246.3-2.681C2.998 33.392 18 32.144 18 30.736c0-1.005-8.192-1.307-13.04-1.486-1.97-.072-3.388-.124-3.48-.195-.842-.639-.6-1.818.192-2.28C2.508 26.724 18 25.595 18 24.188c0-1.008-8.308-1.575-13.193-1.91-1.966-.133-3.378-.23-3.47-.302-.84-.638-.604-1.818.193-2.28l.058-.003c1.225-.075 16.544-1.01 16.544-2.362 0-.828-5.852-1.182-10.68-1.474-3.17-.191-5.9-.356-6.235-.611-.842-.639-.6-1.819.192-2.28C3.07 12.863 18 11.894 18 10.486c0-1.02-8.415-1.625-13.26-1.973h-.001c-1.892-.136-3.24-.233-3.33-.3-.45-.342-.066-2.132.193-2.28l.143-.01C3.372 5.808 18.22 4.759 18.22 3.716c0-1.1-6.76-1.738-6.76-1.738L12.999 0s9.88.712 9.88 3.79c0 2.365-7.476 3.317-7.476 3.317s7.542 1.322 7.542 3.391c0 2.69-7.157 3.465-7.157 3.465s7.371 1.123 7.371 3.232c0 2.479-7.949 3.619-7.949 3.619s8.142 1.345 8.142 3.157c0 2.285-7.646 3.596-7.646 3.596s7.75.627 7.75 3.1zm16.416 8.001h-.688l-4.434 9.934h.737l1.21-2.758h5.628l1.21 2.758h.77l-4.433-9.934zm-.347.798l2.503 5.711h-5.022l2.52-5.71zm5.287-.73h-.787l3.45 9.94h.577l2.789-8.571 2.789 8.571h.572l3.455-9.94h-.738l-2.992 8.783-2.784-8.81h-.55l-2.789 8.805-2.992-8.777zm17.675-.068h-.683l-4.434 9.934h.738l1.21-2.758h5.622l1.21 2.758h.77l-4.434-9.934zm-.353.798l2.503 5.711h-5.022l2.52-5.71zm10.194-.73h-4v9.866h.705v-4.086h3.119l3.03 4.092h.897l-3.14-4.218c1.606-.227 2.789-1.168 2.789-2.82v-.03a2.654 2.654 0 0 0-.721-1.834c-.572-.587-1.513-.97-2.68-.97zm2.69 2.862c0 1.425-1.177 2.257-2.773 2.257h-3.207v-4.44h3.246c1.727 0 2.734.826 2.734 2.154v.029zm5.98-2.861h-3.175v9.865h3.175c2.992 0 5.06-2.154 5.06-4.935v-.029c0-2.775-2.068-4.901-5.06-4.901zm4.323 4.964c0 2.348-1.672 4.229-4.323 4.229v-.006h-2.465v-8.509h2.465c2.651 0 4.323 1.915 4.323 4.257v.029zm2.52 2.912l-.462.553c1.144 1.06 2.31 1.579 3.84 1.579 1.831 0 3.152-1.095 3.152-2.69v-.029c0-1.442-.925-2.257-3.125-2.724-2.261-.479-2.778-1.111-2.778-2.154v-.029c0-1.031.924-1.863 2.327-1.863 1.051-.02 2.07.38 2.844 1.117l.446-.582c-.963-.798-1.876-1.197-3.263-1.197-1.771 0-3.064 1.129-3.064 2.593v.029c0 1.493.924 2.297 3.213 2.776 2.162.45 2.695 1.06 2.695 2.103v.028c0 1.128-.984 1.96-2.415 1.96-1.397 0-2.365-.467-3.41-1.47zM37.187 8.897h-3.322v-.678h7.349v.678H37.89v9.193h-.704V8.897zm5.562-.678h.71v4.57h6.094V8.22h.71v9.87h-.71v-4.627h-6.095v4.628h-.71V8.219zm10.006 0h6.772v.678h-6.068v3.875h5.457v.678H53.46v3.962h6.14v.678h-6.844V8.219zm-8.73 14.8v.006h-2.426l-.902 3.516-.003.01c-.57 2.248-.68 2.684-1.086 4.937-.325-2.468-.451-3.06-1.634-8.463H35.24l2.783 11.381h2.828l1.056-3.835c.382-1.21.694-2.44.935-3.688.3 1.45.355 1.644.803 3.234l.149.528c.216.755.42 1.515.625 2.275.133.495.267.991.404 1.486h2.827l2.784-11.387H47.71l-.715 3.471c-.496 2.314-.573 2.702-.903 4.958-.326-2.107-.44-2.523-.978-4.47l-.078-.283c-.352-1.225-.682-2.45-1.012-3.676zm16.443 9.94c.544-.525.907-1.066 1.276-1.636l-2.35-1.237c-.384.775-.967 1.927-2.673 1.927-1.677 0-2.426-1.357-2.41-2.725h7.554c-.044-1.236-.127-3.374-1.502-4.907-1.353-1.51-3.174-1.573-3.801-1.573-4.17 0-5.424 3.397-5.424 6.042 0 3.584 2.206 5.659 5.341 5.659a5.694 5.694 0 0 0 3.989-1.55zm-2.41-7.233c.355.436.562.98.589 1.55h-4.313l.003-.012c.098-.459.204-.955.624-1.435a2.162 2.162 0 0 1 1.528-.714c.58-.02 1.145.2 1.57.611zM68.07 23.02h-4.247v11.382h4.638c1.26 0 2.145-.052 2.97-.422.53-.224.985-.604 1.308-1.093.322-.49.499-1.067.507-1.66 0-.65-.214-1.276-.605-1.71-.597-.703-1.468-.85-2.136-.964l-.025-.005c.594-.125 1.65-.353 2.145-1.515.05-.109.203-.48.203-1.095a2.744 2.744 0 0 0-.51-1.66 2.585 2.585 0 0 0-1.388-.984c-.665-.223-1.705-.274-2.86-.274zm-1.634 4.497V25.15h2.256c.528 0 1.446.045 1.446 1.14 0 1.18-1.012 1.208-1.633 1.225h-2.069zm0 4.822V29.58h2.396c.566.018 1.631.05 1.631 1.402 0 1.305-1.194 1.34-2.112 1.356h-1.915zm13.302-9.319H75.49v11.382h4.637c1.26 0 2.146-.052 2.97-.422a3.036 3.036 0 0 0 1.816-2.753c0-.65-.22-1.276-.605-1.71-.597-.703-1.468-.85-2.136-.964l-.026-.005c.594-.125 1.65-.353 2.146-1.515.05-.109.203-.48.203-1.095a2.744 2.744 0 0 0-.51-1.66 2.585 2.585 0 0 0-1.388-.984c-.67-.223-1.71-.274-2.86-.274zm-1.634 4.497V25.15h2.255c.528 0 1.447.045 1.447 1.14 0 1.18-1.012 1.208-1.634 1.225h-2.068zm0 4.822V29.58H80.5c.566.018 1.63.05 1.63 1.402 0 1.305-1.198 1.34-2.112 1.356h-1.914zm9.907-9.319h-3.163l4.126 6.081v5.3h2.706v-5.385l4.154-5.996h-3.125l-1.881 3.05c-.286.467-.314.53-.451.854L88.01 23.02z" fill="#0C0D0E"/></svg>